<mxfile host="app.diagrams.net" modified="2023-09-26T15:01:01.676Z" agent="Mozilla/5.0 (Windows NT 10.0; Win64; x64) AppleWebKit/537.36 (KHTML, like Gecko) Chrome/117.0.0.0 Safari/537.36" etag="Vqq_N8PrFLRyUmhCKICz" version="21.8.2" type="github">
  <diagram name="Страница — 1" id="bypFX0cN5ny5cvLNbwUw">
    <mxGraphModel dx="1050" dy="542" grid="1" gridSize="10" guides="1" tooltips="1" connect="1" arrows="1" fold="1" page="1" pageScale="1" pageWidth="1169" pageHeight="827" math="0" shadow="0">
      <root>
        <mxCell id="0" />
        <mxCell id="1" parent="0" />
        <mxCell id="SbIMPYCf5qLRGxNVQ4uK-1" value="Клиент UI (веб страница, кнопки, формы, все отдается статикой и вся логика обрабатывается в браузере без бэкэнда )" style="whiteSpace=wrap;html=1;aspect=fixed;" vertex="1" parent="1">
          <mxGeometry x="70" y="120" width="180" height="180" as="geometry" />
        </mxCell>
        <mxCell id="SbIMPYCf5qLRGxNVQ4uK-2" value="" style="endArrow=classic;html=1;rounded=0;exitX=1;exitY=0.222;exitDx=0;exitDy=0;exitPerimeter=0;" edge="1" parent="1">
          <mxGeometry width="50" height="50" relative="1" as="geometry">
            <mxPoint x="250" y="162.46000000000004" as="sourcePoint" />
            <mxPoint x="350" y="162" as="targetPoint" />
            <Array as="points" />
          </mxGeometry>
        </mxCell>
        <mxCell id="SbIMPYCf5qLRGxNVQ4uK-3" value="HTTP" style="edgeLabel;html=1;align=center;verticalAlign=middle;resizable=0;points=[];" vertex="1" connectable="0" parent="SbIMPYCf5qLRGxNVQ4uK-2">
          <mxGeometry x="-0.0489" y="1" relative="1" as="geometry">
            <mxPoint as="offset" />
          </mxGeometry>
        </mxCell>
        <mxCell id="SbIMPYCf5qLRGxNVQ4uK-6" value="" style="endArrow=classic;html=1;rounded=0;entryX=1.022;entryY=0.891;entryDx=0;entryDy=0;entryPerimeter=0;" edge="1" parent="1">
          <mxGeometry width="50" height="50" relative="1" as="geometry">
            <mxPoint x="360" y="240" as="sourcePoint" />
            <mxPoint x="250.00000000000006" y="240.38" as="targetPoint" />
          </mxGeometry>
        </mxCell>
        <mxCell id="SbIMPYCf5qLRGxNVQ4uK-7" value="Apache Web Server" style="whiteSpace=wrap;html=1;aspect=fixed;" vertex="1" parent="1">
          <mxGeometry x="351" y="120" width="190" height="190" as="geometry" />
        </mxCell>
        <mxCell id="SbIMPYCf5qLRGxNVQ4uK-14" value="Архитектура Web Tours" style="rounded=1;whiteSpace=wrap;html=1;" vertex="1" parent="1">
          <mxGeometry x="280" y="20" width="400" height="60" as="geometry" />
        </mxCell>
      </root>
    </mxGraphModel>
  </diagram>
</mxfile>
